<?xml version="1.0" encoding="utf-8"?>
<svg version="1.1" id="Layer_1" x="0px" y="0px" viewBox="180.561 -3.71 151.498 515.711" style="enable-background:new 0 0 512.001 512.001;" xmlns="http://www.w3.org/2000/svg">
  <defs/>
  <path style="fill:#FFAA2A;" d="M249.883,74.799c0-3.345,2.71-6.055,6.055-6.055c3.345,0,6.055,2.71,6.055,6.055v16.924&#10;&#9;c10.556-2.125,17.518-9.829,17.518-20.207c0-7.173-3.102-22.879-8.294-36.744c-6.712-17.926-12.93-22.662-15.279-22.662&#10;&#9;c-2.35,0-8.568,4.736-15.279,22.662c-5.19,13.864-8.292,29.569-8.292,36.744c0,10.376,6.963,18.081,17.517,20.207V74.799z"/>
  <path style="fill:#AA0F13;" d="M263.962,226.379v-38.263h-16.596c-2.857,15.592-16.546,27.444-32.953,27.444&#10;&#9;c-8.125,0-15.583-2.91-21.39-7.741v292.071h125.829V252.137c-5.806,4.83-13.264,7.741-21.391,7.741&#10;&#9;C278.99,259.878,263.962,244.85,263.962,226.379z"/>
  <path style="fill:#EA0B0B;" d="M283.518,133.818h-55.159c-19.484,0-35.336,15.851-35.336,35.335v12.91&#10;&#9;c0,11.794,9.595,21.39,21.39,21.39c11.796,0,21.392-9.595,21.392-21.39c0-3.345,2.71-6.055,6.055-6.055h28.156&#10;&#9;c3.345,0,6.055,2.71,6.055,6.055v44.318c0,11.794,9.597,21.39,21.391,21.39c11.794,0,21.391-9.595,21.391-21.39v-57.228&#10;&#9;C318.853,149.669,303.001,133.818,283.518,133.818z"/>
  <path d="M283.518,121.708h-21.525V104.02c17.484-2.427,29.628-15.347,29.628-32.506c0-9.726-3.811-26.966-9.061-40.991&#10;&#9;C274.975,10.27,266.017,0,255.938,0c-23.789,0-35.681,57.859-35.681,71.516c0,17.159,12.142,30.079,29.626,32.506v17.687H228.36&#10;&#9;c-26.161,0-47.445,21.283-47.445,47.444v336.794c0,3.345,2.71,6.055,6.055,6.055h137.938c3.345,0,6.055-2.71,6.055-6.055V169.152&#10;&#9;C330.963,142.992,309.68,121.708,283.518,121.708z M232.366,71.516c0-7.175,3.102-22.88,8.292-36.744&#10;&#9;c6.711-17.926,12.929-22.662,15.279-22.662c2.349,0,8.567,4.736,15.279,22.662c5.191,13.865,8.294,29.571,8.294,36.744&#10;&#9;c0,10.376-6.963,18.081-17.518,20.207V74.799c0-3.345-2.71-6.055-6.055-6.055c-3.345,0-6.055,2.71-6.055,6.055v16.924&#10;&#9;C239.329,89.596,232.366,81.892,232.366,71.516z M318.853,499.891H193.024V207.819c5.806,4.83,13.264,7.741,21.39,7.741&#10;&#9;c16.407,0,30.096-11.852,32.953-27.444h16.596v38.264c0,18.471,15.028,33.499,33.5,33.499c8.126,0,15.585-2.91,21.391-7.741V499.891&#10;&#9;z M318.853,226.379c0,11.794-9.597,21.39-21.391,21.39c-11.794,0-21.391-9.595-21.391-21.39v-44.317c0-3.345-2.71-6.055-6.055-6.055&#10;&#9;h-28.156c-3.345,0-6.055,2.71-6.055,6.055c0,11.794-9.597,21.39-21.392,21.39c-11.794,0-21.39-9.595-21.39-21.39v-12.91&#10;&#9;c0-19.484,15.852-35.335,35.336-35.335h55.159c19.484,0,35.336,15.851,35.336,35.335v57.227H318.853z"/>
</svg>